<svg width="50" height="34" fill="none" xmlns="http://www.w3.org/2000/svg"><path d="M25 0a17.4 17.4 0 0 0-11.23 4.15c-2.4 2.04-4.13 4.7-4.58 7.36C3.96 12.66 0 17.17 0 22.61 0 28.96 5.34 34 11.82 34h27.83C45.32 34 50 29.58 50 24.03c0-5.06-3.88-9.18-8.86-9.88C40.38 6.18 33.41 0 25 0Zm7.36 15.9a1.55 1.55 0 0 1 .34 1.7 1.55 1.55 0 0 1-1.45.95 1.58 1.58 0 0 1-1.1-.46l-3.59-3.54v11.72a1.57 1.57 0 0 1-3.13 0V14.55l-3.57 3.54A1.57 1.57 0 0 1 17.19 17c0-.41.16-.8.45-1.1l6.25-6.18a1.56 1.56 0 0 1 2.22 0l6.25 6.19Z" fill="#909090"/></svg>