<svg width="22" height="22" fill="none" xmlns="http://www.w3.org/2000/svg"><path d="M11 .5a10.5 10.5 0 1 0 0 21 10.5 10.5 0 0 0 0-21Zm0 19.22a8.72 8.72 0 1 1 0-17.44 8.72 8.72 0 0 1 0 17.44Z" fill="#00D2A0"/><path d="M11 2.28a8.72 8.72 0 1 0 0 17.44 8.72 8.72 0 0 0 0-17.44Zm4.53 5.3L10.6 14.4a.75.75 0 0 1-1.21 0l-2.93-4.05c-.08-.12 0-.3.16-.3h1.1c.24 0 .46.12.6.32L10 12.69l3.69-5.1c.14-.2.36-.32.6-.32h1.1c.16 0 .24.18.15.3Z" fill="#00D2A0" fill-opacity=".1"/><path d="M15.38 7.27h-1.1a.75.75 0 0 0-.6.32l-3.69 5.1-1.67-2.31a.75.75 0 0 0-.6-.31h-1.1c-.16 0-.24.17-.16.3L9.4 14.4a.74.74 0 0 0 1.2 0l4.94-6.84c.1-.12 0-.3-.15-.3Z" fill="#00D2A0"/></svg>